<?xml version="1.0" encoding="iso-8859-1"?>
<!-- Generator: Adobe Illustrator 19.0.0, SVG Export Plug-In . SVG Version: 6.00 Build 0)  -->
<svg version="1.1" id="Layer_1" xmlns="http://www.w3.org/2000/svg" xmlns:xlink="http://www.w3.org/1999/xlink" x="0px" y="0px"
	 viewBox="0 0 512 512" style="enable-background:new 0 0 512 512;" xml:space="preserve">
<path d="M256,0C114.616,0,0,114.616,0,256s114.616,256,256,256s256-114.616,256-256S397.384,0,256,0z"/>
<g>
	<path style="fill:#FFFFFF;" d="M385.16,325.992h-24v-104.72c0-57.984-47.168-105.168-105.16-105.168
		S150.832,163.28,150.832,221.272v104.72h-24v-104.72c0-71.216,57.944-129.168,129.168-129.168s129.16,57.944,129.16,129.168
		V325.992z"/>
	<path style="fill:#FFFFFF;" d="M361.168,252.016v133.632c31.984-5.48,56.352-33.264,56.352-66.816
		C417.512,285.288,393.152,257.496,361.168,252.016z"/>
	<path style="fill:#FFFFFF;" d="M150.84,252.016v133.632c-31.984-5.48-56.352-33.264-56.352-66.816
		C94.488,285.288,118.856,257.496,150.84,252.016z"/>
</g>
<path style="fill:#E21B1B;" d="M165.784,252.016H150.84v133.632h14.944c4.4,0,8-3.6,8-8V260.016
	C173.784,255.616,170.184,252.016,165.784,252.016z"/>
<g style="opacity:0.2;">
	<rect x="150.84" y="288.8" style="fill:#FFFFFF;" width="22.944" height="60.136"/>
</g>
<path style="fill:#E21B1B;" d="M346.216,252.016c-4.4,0-8,3.6-8,8v117.632c0,4.4,3.6,8,8,8h14.944V252.016H346.216z"/>
<g style="opacity:0.2;">
	<rect x="338.24" y="288.8" style="fill:#FFFFFF;" width="22.944" height="60.136"/>
</g>
<g>
</g>
<g>
</g>
<g>
</g>
<g>
</g>
<g>
</g>
<g>
</g>
<g>
</g>
<g>
</g>
<g>
</g>
<g>
</g>
<g>
</g>
<g>
</g>
<g>
</g>
<g>
</g>
<g>
</g>
</svg>
